<svg xmlns="http://www.w3.org/2000/svg" xmlns:xlink="http://www.w3.org/1999/xlink" width="500" zoomAndPan="magnify" viewBox="0 0 375 374.999991" height="500" preserveAspectRatio="xMidYMid meet" version="1.0"><defs><g/><clipPath id="id1"><path d="M 166 180 L 216 180 L 216 209.746094 L 166 209.746094 Z M 166 180 " clip-rule="nonzero"/></clipPath><clipPath id="id2"><path d="M 166 130.996094 L 214 130.996094 L 214 154 L 166 154 Z M 166 130.996094 " clip-rule="nonzero"/></clipPath><clipPath id="id3"><path d="M 151.355469 151 L 189 151 L 189 184 L 151.355469 184 Z M 151.355469 151 " clip-rule="nonzero"/></clipPath><clipPath id="id4"><path d="M 188 132 L 230.105469 132 L 230.105469 170 L 188 170 Z M 188 132 " clip-rule="nonzero"/></clipPath></defs><path fill="#1956b4" d="M 212.878906 165.449219 L 215.339844 165.449219 L 215.339844 169.140625 L 212.878906 169.140625 Z M 212.878906 165.449219 " fill-opacity="1" fill-rule="nonzero"/><g clip-path="url(#id1)"><path fill="#1956b4" d="M 209.1875 209.746094 L 172.273438 209.746094 C 171.871094 209.746094 171.472656 209.707031 171.074219 209.625 C 170.679688 209.546875 170.296875 209.429688 169.921875 209.273438 C 169.550781 209.121094 169.195312 208.929688 168.859375 208.707031 C 168.523438 208.480469 168.210938 208.226562 167.925781 207.941406 C 167.640625 207.65625 167.386719 207.34375 167.160156 207.007812 C 166.9375 206.671875 166.746094 206.320312 166.59375 205.945312 C 166.4375 205.574219 166.320312 205.1875 166.242188 204.792969 C 166.164062 204.398438 166.125 203.996094 166.121094 203.59375 L 166.121094 180.214844 L 168.582031 180.214844 L 168.582031 203.59375 C 168.582031 204.082031 168.675781 204.554688 168.863281 205.003906 C 169.050781 205.457031 169.320312 205.855469 169.664062 206.203125 C 170.011719 206.550781 170.410156 206.816406 170.863281 207.003906 C 171.316406 207.191406 171.785156 207.285156 172.273438 207.285156 L 209.1875 207.285156 C 209.679688 207.285156 210.148438 207.191406 210.601562 207.003906 C 211.054688 206.816406 211.453125 206.550781 211.800781 206.203125 C 212.144531 205.855469 212.414062 205.457031 212.601562 205.003906 C 212.785156 204.554688 212.878906 204.082031 212.878906 203.59375 L 212.878906 196.210938 L 215.339844 196.210938 L 215.339844 203.59375 C 215.339844 203.996094 215.300781 204.398438 215.222656 204.792969 C 215.144531 205.1875 215.027344 205.574219 214.871094 205.945312 C 214.714844 206.320312 214.527344 206.671875 214.300781 207.007812 C 214.078125 207.34375 213.824219 207.65625 213.539062 207.941406 C 213.25 208.226562 212.941406 208.480469 212.605469 208.707031 C 212.269531 208.929688 211.914062 209.121094 211.542969 209.273438 C 211.167969 209.429688 210.785156 209.546875 210.390625 209.625 C 209.992188 209.707031 209.59375 209.746094 209.1875 209.746094 Z M 209.1875 209.746094 " fill-opacity="1" fill-rule="nonzero"/></g><g clip-path="url(#id2)"><path fill="#1956b4" d="M 168.582031 153.144531 L 166.121094 153.144531 L 166.121094 137.148438 C 166.125 136.742188 166.164062 136.34375 166.242188 135.949219 C 166.320312 135.550781 166.4375 135.167969 166.59375 134.792969 C 166.746094 134.421875 166.9375 134.066406 167.160156 133.730469 C 167.386719 133.394531 167.640625 133.085938 167.925781 132.800781 C 168.210938 132.515625 168.523438 132.257812 168.859375 132.035156 C 169.195312 131.808594 169.550781 131.621094 169.921875 131.464844 C 170.296875 131.3125 170.679688 131.195312 171.074219 131.113281 C 171.472656 131.035156 171.871094 130.996094 172.273438 130.996094 L 209.1875 130.996094 C 210.738281 130.996094 212.097656 131.507812 213.257812 132.535156 L 211.628906 134.378906 C 210.933594 133.765625 210.117188 133.457031 209.1875 133.457031 L 172.273438 133.457031 C 171.785156 133.457031 171.316406 133.550781 170.863281 133.738281 C 170.410156 133.925781 170.011719 134.191406 169.664062 134.539062 C 169.320312 134.882812 169.050781 135.28125 168.863281 135.734375 C 168.675781 136.1875 168.582031 136.660156 168.582031 137.148438 Z M 168.582031 153.144531 " fill-opacity="1" fill-rule="nonzero"/></g><path fill="#1956b4" d="M 193.191406 140.839844 L 186.070312 140.839844 C 184.828125 140.839844 183.691406 140.496094 182.65625 139.804688 L 181.445312 138.992188 C 180.824219 138.582031 180.144531 138.375 179.398438 138.378906 L 167.351562 138.378906 L 167.351562 135.917969 L 179.398438 135.917969 C 180.640625 135.914062 181.777344 136.261719 182.808594 136.949219 L 184.023438 137.757812 C 184.644531 138.171875 185.324219 138.375 186.070312 138.375 L 193.191406 138.375 Z M 193.191406 140.839844 " fill-opacity="1" fill-rule="nonzero"/><path fill="#1956b4" d="M 214.109375 204.824219 L 202.066406 204.824219 C 200.824219 204.824219 199.6875 204.480469 198.652344 203.789062 L 197.441406 202.984375 C 196.820312 202.570312 196.140625 202.363281 195.394531 202.367188 L 186.070312 202.367188 C 185.324219 202.363281 184.644531 202.570312 184.023438 202.984375 L 182.808594 203.789062 C 181.777344 204.480469 180.640625 204.824219 179.398438 204.824219 L 167.351562 204.824219 C 167.191406 204.824219 167.035156 204.792969 166.882812 204.730469 C 166.730469 204.667969 166.597656 204.578125 166.484375 204.464844 C 166.367188 204.347656 166.277344 204.214844 166.214844 204.0625 C 166.152344 203.914062 166.121094 203.757812 166.121094 203.59375 C 166.121094 203.429688 166.152344 203.273438 166.214844 203.121094 C 166.277344 202.972656 166.367188 202.839844 166.484375 202.722656 C 166.597656 202.609375 166.730469 202.519531 166.882812 202.457031 C 167.035156 202.394531 167.191406 202.363281 167.351562 202.363281 L 179.398438 202.363281 C 180.144531 202.367188 180.824219 202.160156 181.445312 201.746094 L 182.65625 200.941406 C 183.6875 200.246094 184.828125 199.902344 186.070312 199.902344 L 195.394531 199.902344 C 196.636719 199.898438 197.773438 200.246094 198.804688 200.933594 L 200.019531 201.742188 C 200.640625 202.15625 201.320312 202.359375 202.066406 202.359375 L 214.109375 202.359375 C 214.273438 202.359375 214.429688 202.390625 214.582031 202.453125 C 214.734375 202.515625 214.867188 202.601562 214.980469 202.71875 C 215.097656 202.832031 215.183594 202.964844 215.246094 203.117188 C 215.308594 203.269531 215.339844 203.425781 215.339844 203.589844 C 215.339844 203.75 215.308594 203.910156 215.246094 204.058594 C 215.183594 204.210938 215.097656 204.34375 214.980469 204.457031 C 214.867188 204.574219 214.734375 204.664062 214.582031 204.726562 C 214.429688 204.789062 214.273438 204.820312 214.109375 204.820312 Z M 214.109375 204.824219 " fill-opacity="1" fill-rule="nonzero"/><path fill="#1956b4" d="M 198.113281 199.902344 C 197.953125 199.902344 197.792969 199.871094 197.644531 199.808594 C 197.414062 199.710938 197.230469 199.5625 197.089844 199.355469 C 196.953125 199.148438 196.882812 198.921875 196.882812 198.671875 L 196.882812 193.683594 C 195.964844 193.082031 195.132812 192.378906 194.382812 191.574219 C 193.636719 190.773438 192.992188 189.890625 192.457031 188.933594 C 191.921875 187.976562 191.507812 186.96875 191.21875 185.910156 C 190.925781 184.851562 190.761719 183.773438 190.730469 182.675781 C 190.730469 174.53125 199.011719 167.910156 209.1875 167.910156 C 219.367188 167.910156 227.644531 174.53125 227.644531 182.675781 C 227.644531 190.816406 219.367188 197.441406 209.1875 197.441406 C 206.796875 197.445312 204.46875 197.078125 202.195312 196.332031 L 198.984375 199.542969 C 198.746094 199.78125 198.453125 199.902344 198.113281 199.902344 Z M 209.1875 170.371094 C 200.371094 170.371094 193.191406 175.890625 193.191406 182.675781 C 193.234375 183.625 193.390625 184.554688 193.664062 185.464844 C 193.933594 186.378906 194.316406 187.242188 194.804688 188.054688 C 195.296875 188.871094 195.878906 189.613281 196.550781 190.28125 C 197.226562 190.953125 197.976562 191.527344 198.792969 192.011719 C 199.160156 192.253906 199.34375 192.597656 199.34375 193.035156 L 199.34375 195.699219 L 201 194.042969 C 201.171875 193.875 201.375 193.765625 201.609375 193.714844 C 201.84375 193.660156 202.070312 193.675781 202.296875 193.761719 C 204.523438 194.578125 206.820312 194.984375 209.1875 194.980469 C 218.007812 194.980469 225.183594 189.460938 225.183594 182.675781 C 225.183594 175.890625 218.007812 170.371094 209.1875 170.371094 Z M 209.1875 170.371094 " fill-opacity="1" fill-rule="nonzero"/><path fill="#1956b4" d="M 217.800781 190.058594 L 216.570312 190.058594 C 216.410156 190.058594 216.25 190.027344 216.101562 189.964844 C 215.949219 189.902344 215.816406 189.8125 215.703125 189.699219 C 215.585938 189.582031 215.496094 189.449219 215.433594 189.296875 C 215.371094 189.148438 215.339844 188.992188 215.339844 188.828125 C 215.339844 188.664062 215.371094 188.507812 215.433594 188.355469 C 215.496094 188.207031 215.585938 188.074219 215.703125 187.957031 C 215.816406 187.84375 215.949219 187.753906 216.101562 187.691406 C 216.25 187.628906 216.410156 187.597656 216.570312 187.597656 L 217.800781 187.597656 C 217.964844 187.597656 218.121094 187.628906 218.273438 187.691406 C 218.425781 187.753906 218.558594 187.84375 218.671875 187.957031 C 218.789062 188.074219 218.875 188.207031 218.9375 188.355469 C 219 188.507812 219.03125 188.664062 219.03125 188.828125 C 219.03125 188.992188 219 189.148438 218.9375 189.296875 C 218.875 189.449219 218.789062 189.582031 218.671875 189.699219 C 218.558594 189.8125 218.425781 189.902344 218.273438 189.964844 C 218.121094 190.027344 217.964844 190.058594 217.800781 190.058594 Z M 217.800781 190.058594 " fill-opacity="1" fill-rule="nonzero"/><path fill="#1956b4" d="M 212.878906 190.058594 L 211.648438 190.058594 C 211.488281 190.058594 211.328125 190.027344 211.179688 189.964844 C 211.027344 189.902344 210.894531 189.8125 210.78125 189.699219 C 210.664062 189.582031 210.574219 189.449219 210.511719 189.296875 C 210.449219 189.148438 210.417969 188.992188 210.417969 188.828125 C 210.417969 188.664062 210.449219 188.507812 210.511719 188.355469 C 210.574219 188.207031 210.664062 188.074219 210.78125 187.957031 C 210.894531 187.84375 211.027344 187.753906 211.179688 187.691406 C 211.328125 187.628906 211.488281 187.597656 211.648438 187.597656 L 212.878906 187.597656 C 213.042969 187.597656 213.199219 187.628906 213.351562 187.691406 C 213.503906 187.753906 213.636719 187.84375 213.75 187.957031 C 213.867188 188.074219 213.953125 188.207031 214.015625 188.355469 C 214.078125 188.507812 214.109375 188.664062 214.109375 188.828125 C 214.109375 188.992188 214.078125 189.148438 214.015625 189.296875 C 213.953125 189.449219 213.867188 189.582031 213.75 189.699219 C 213.636719 189.8125 213.503906 189.902344 213.351562 189.964844 C 213.199219 190.027344 213.042969 190.058594 212.878906 190.058594 Z M 212.878906 190.058594 " fill-opacity="1" fill-rule="nonzero"/><g clip-path="url(#id3)"><path fill="#1956b4" d="M 180.886719 183.90625 C 180.546875 183.90625 180.257812 183.785156 180.019531 183.546875 L 176.808594 180.335938 C 174.535156 181.082031 172.203125 181.449219 169.8125 181.445312 C 159.636719 181.445312 151.355469 174.820312 151.355469 166.679688 C 151.355469 158.535156 159.636719 151.914062 169.8125 151.914062 C 179.992188 151.914062 188.269531 158.535156 188.269531 166.679688 C 188.238281 167.777344 188.078125 168.855469 187.785156 169.914062 C 187.496094 170.972656 187.082031 171.980469 186.546875 172.9375 C 186.007812 173.894531 185.367188 174.777344 184.617188 175.578125 C 183.871094 176.382812 183.039062 177.085938 182.117188 177.6875 L 182.117188 182.675781 C 182.117188 182.925781 182.050781 183.152344 181.910156 183.359375 C 181.773438 183.566406 181.589844 183.714844 181.359375 183.8125 C 181.207031 183.875 181.050781 183.90625 180.886719 183.90625 Z M 177.132812 177.6875 C 177.472656 177.6875 177.761719 177.808594 178 178.046875 L 179.65625 179.703125 L 179.65625 177.039062 C 179.65625 176.601562 179.839844 176.257812 180.210938 176.015625 C 181.027344 175.53125 181.777344 174.957031 182.453125 174.285156 C 183.125 173.617188 183.707031 172.875 184.199219 172.058594 C 184.6875 171.246094 185.066406 170.382812 185.339844 169.46875 C 185.613281 168.558594 185.769531 167.628906 185.808594 166.679688 C 185.808594 159.894531 178.632812 154.375 169.8125 154.375 C 160.996094 154.375 153.816406 159.894531 153.816406 166.679688 C 153.816406 173.464844 160.996094 178.984375 169.8125 178.984375 C 172.183594 178.988281 174.480469 178.582031 176.703125 177.765625 C 176.84375 177.714844 176.984375 177.6875 177.132812 177.6875 Z M 177.132812 177.6875 " fill-opacity="1" fill-rule="nonzero"/></g><path fill="#1956b4" d="M 162.429688 174.0625 L 161.199219 174.0625 C 161.039062 174.0625 160.882812 174.03125 160.730469 173.96875 C 160.578125 173.90625 160.445312 173.816406 160.332031 173.703125 C 160.214844 173.585938 160.125 173.453125 160.0625 173.300781 C 160 173.152344 159.96875 172.996094 159.96875 172.832031 C 159.96875 172.667969 160 172.511719 160.0625 172.359375 C 160.125 172.210938 160.214844 172.078125 160.332031 171.960938 C 160.445312 171.847656 160.578125 171.757812 160.730469 171.695312 C 160.882812 171.632812 161.039062 171.601562 161.199219 171.601562 L 162.429688 171.601562 C 162.59375 171.601562 162.75 171.632812 162.902344 171.695312 C 163.054688 171.757812 163.1875 171.847656 163.300781 171.960938 C 163.417969 172.078125 163.503906 172.210938 163.566406 172.359375 C 163.628906 172.511719 163.660156 172.667969 163.660156 172.832031 C 163.660156 172.996094 163.628906 173.152344 163.566406 173.300781 C 163.503906 173.453125 163.417969 173.585938 163.300781 173.703125 C 163.1875 173.816406 163.054688 173.90625 162.902344 173.96875 C 162.75 174.03125 162.59375 174.0625 162.429688 174.0625 Z M 162.429688 174.0625 " fill-opacity="1" fill-rule="nonzero"/><path fill="#1956b4" d="M 167.351562 174.0625 L 166.121094 174.0625 C 165.960938 174.0625 165.804688 174.03125 165.652344 173.96875 C 165.5 173.90625 165.367188 173.816406 165.253906 173.703125 C 165.136719 173.585938 165.046875 173.453125 164.984375 173.300781 C 164.921875 173.152344 164.890625 172.996094 164.890625 172.832031 C 164.890625 172.667969 164.921875 172.511719 164.984375 172.359375 C 165.046875 172.210938 165.136719 172.078125 165.253906 171.960938 C 165.367188 171.847656 165.5 171.757812 165.652344 171.695312 C 165.804688 171.632812 165.960938 171.601562 166.121094 171.601562 L 167.351562 171.601562 C 167.515625 171.601562 167.671875 171.632812 167.824219 171.695312 C 167.976562 171.757812 168.109375 171.847656 168.222656 171.960938 C 168.339844 172.078125 168.425781 172.210938 168.488281 172.359375 C 168.550781 172.511719 168.582031 172.667969 168.582031 172.832031 C 168.582031 172.996094 168.550781 173.152344 168.488281 173.300781 C 168.425781 173.453125 168.339844 173.585938 168.222656 173.703125 C 168.109375 173.816406 167.976562 173.90625 167.824219 173.96875 C 167.671875 174.03125 167.515625 174.0625 167.351562 174.0625 Z M 167.351562 174.0625 " fill-opacity="1" fill-rule="nonzero"/><g clip-path="url(#id4)"><path fill="#1956b4" d="M 196.882812 169.140625 C 196.722656 169.140625 196.5625 169.109375 196.414062 169.046875 C 196.183594 168.953125 196 168.800781 195.859375 168.59375 C 195.722656 168.386719 195.652344 168.160156 195.652344 167.910156 L 195.652344 162.585938 C 194.546875 161.875 193.542969 161.042969 192.644531 160.089844 C 191.742188 159.132812 190.96875 158.085938 190.324219 156.941406 C 189.679688 155.792969 189.1875 154.589844 188.839844 153.320312 C 188.492188 152.054688 188.300781 150.765625 188.269531 149.453125 C 188.269531 139.953125 197.65625 132.226562 209.1875 132.226562 C 220.722656 132.226562 230.105469 139.953125 230.105469 149.453125 C 230.105469 158.953125 220.722656 166.679688 209.1875 166.679688 C 206.441406 166.6875 203.765625 166.25 201.164062 165.371094 L 197.753906 168.78125 C 197.515625 169.019531 197.222656 169.140625 196.882812 169.140625 Z M 209.1875 134.6875 C 199.011719 134.6875 190.730469 141.308594 190.730469 149.453125 C 190.730469 153.917969 193.21875 158.089844 197.554688 160.894531 C 197.929688 161.136719 198.117188 161.484375 198.113281 161.929688 L 198.113281 164.9375 L 199.976562 163.078125 C 200.148438 162.90625 200.351562 162.796875 200.585938 162.746094 C 200.824219 162.695312 201.054688 162.710938 201.28125 162.796875 C 203.832031 163.753906 206.464844 164.226562 209.1875 164.21875 C 219.367188 164.21875 227.644531 157.59375 227.644531 149.453125 C 227.644531 141.308594 219.367188 134.6875 209.1875 134.6875 Z M 209.1875 134.6875 " fill-opacity="1" fill-rule="nonzero"/></g><path fill="#1956b4" d="M 217.800781 159.296875 L 216.570312 159.296875 C 216.410156 159.296875 216.25 159.265625 216.101562 159.203125 C 215.949219 159.140625 215.816406 159.050781 215.703125 158.9375 C 215.585938 158.820312 215.496094 158.6875 215.433594 158.535156 C 215.371094 158.386719 215.339844 158.230469 215.339844 158.066406 C 215.339844 157.902344 215.371094 157.746094 215.433594 157.59375 C 215.496094 157.445312 215.585938 157.3125 215.703125 157.195312 C 215.816406 157.082031 215.949219 156.992188 216.101562 156.929688 C 216.25 156.867188 216.410156 156.835938 216.570312 156.835938 L 217.800781 156.835938 C 217.964844 156.835938 218.121094 156.867188 218.273438 156.929688 C 218.425781 156.992188 218.558594 157.082031 218.671875 157.195312 C 218.789062 157.3125 218.875 157.445312 218.9375 157.59375 C 219 157.746094 219.03125 157.902344 219.03125 158.066406 C 219.03125 158.230469 219 158.386719 218.9375 158.535156 C 218.875 158.6875 218.789062 158.820312 218.671875 158.9375 C 218.558594 159.050781 218.425781 159.140625 218.273438 159.203125 C 218.121094 159.265625 217.964844 159.296875 217.800781 159.296875 Z M 217.800781 159.296875 " fill-opacity="1" fill-rule="nonzero"/><path fill="#1956b4" d="M 212.878906 159.296875 L 211.648438 159.296875 C 211.488281 159.296875 211.328125 159.265625 211.179688 159.203125 C 211.027344 159.140625 210.894531 159.050781 210.78125 158.9375 C 210.664062 158.820312 210.574219 158.6875 210.511719 158.535156 C 210.449219 158.386719 210.417969 158.230469 210.417969 158.066406 C 210.417969 157.902344 210.449219 157.746094 210.511719 157.59375 C 210.574219 157.445312 210.664062 157.3125 210.78125 157.195312 C 210.894531 157.082031 211.027344 156.992188 211.179688 156.929688 C 211.328125 156.867188 211.488281 156.835938 211.648438 156.835938 L 212.878906 156.835938 C 213.042969 156.835938 213.199219 156.867188 213.351562 156.929688 C 213.503906 156.992188 213.636719 157.082031 213.75 157.195312 C 213.867188 157.3125 213.953125 157.445312 214.015625 157.59375 C 214.078125 157.746094 214.109375 157.902344 214.109375 158.066406 C 214.109375 158.230469 214.078125 158.386719 214.015625 158.535156 C 213.953125 158.6875 213.867188 158.820312 213.75 158.9375 C 213.636719 159.050781 213.503906 159.140625 213.351562 159.203125 C 213.199219 159.265625 213.042969 159.296875 212.878906 159.296875 Z M 212.878906 159.296875 " fill-opacity="1" fill-rule="nonzero"/><path fill="#1956b4" d="M 185.808594 191.289062 L 173.503906 191.289062 C 173.34375 191.289062 173.1875 191.257812 173.035156 191.195312 C 172.882812 191.132812 172.75 191.042969 172.636719 190.929688 C 172.519531 190.8125 172.429688 190.679688 172.367188 190.527344 C 172.304688 190.378906 172.273438 190.222656 172.273438 190.058594 C 172.273438 189.894531 172.304688 189.738281 172.367188 189.585938 C 172.429688 189.4375 172.519531 189.304688 172.636719 189.1875 C 172.75 189.074219 172.882812 188.984375 173.035156 188.921875 C 173.1875 188.859375 173.34375 188.828125 173.503906 188.828125 L 185.808594 188.828125 C 185.972656 188.828125 186.128906 188.859375 186.28125 188.921875 C 186.433594 188.984375 186.566406 189.074219 186.679688 189.1875 C 186.796875 189.304688 186.882812 189.4375 186.945312 189.585938 C 187.007812 189.738281 187.039062 189.894531 187.039062 190.058594 C 187.039062 190.222656 187.007812 190.378906 186.945312 190.527344 C 186.882812 190.679688 186.796875 190.8125 186.679688 190.929688 C 186.566406 191.042969 186.433594 191.132812 186.28125 191.195312 C 186.128906 191.257812 185.972656 191.289062 185.808594 191.289062 Z M 185.808594 191.289062 " fill-opacity="1" fill-rule="nonzero"/><path fill="#1956b4" d="M 184.578125 196.210938 L 177.195312 196.210938 C 177.035156 196.210938 176.878906 196.179688 176.726562 196.117188 C 176.574219 196.054688 176.441406 195.964844 176.328125 195.851562 C 176.210938 195.734375 176.121094 195.601562 176.058594 195.449219 C 175.996094 195.300781 175.964844 195.144531 175.964844 194.980469 C 175.964844 194.816406 175.996094 194.660156 176.058594 194.507812 C 176.121094 194.359375 176.210938 194.226562 176.328125 194.109375 C 176.441406 193.996094 176.574219 193.90625 176.726562 193.84375 C 176.878906 193.78125 177.035156 193.75 177.195312 193.75 L 184.578125 193.75 C 184.742188 193.75 184.898438 193.78125 185.050781 193.84375 C 185.203125 193.90625 185.335938 193.996094 185.449219 194.109375 C 185.566406 194.226562 185.652344 194.359375 185.714844 194.507812 C 185.777344 194.660156 185.808594 194.816406 185.808594 194.980469 C 185.808594 195.144531 185.777344 195.300781 185.714844 195.449219 C 185.652344 195.601562 185.566406 195.734375 185.449219 195.851562 C 185.335938 195.964844 185.203125 196.054688 185.050781 196.117188 C 184.898438 196.179688 184.742188 196.210938 184.578125 196.210938 Z M 184.578125 196.210938 " fill-opacity="1" fill-rule="nonzero"/><g fill="#1956b4" fill-opacity="1"><g transform="translate(92.046877, 239.654516)"><g><path d="M 16.320312 0 C 18.433594 0 20.160156 -1.726562 20.160156 -3.839844 L 20.160156 -15.359375 C 20.160156 -17.472656 18.433594 -19.199219 16.320312 -19.199219 L 0.960938 -19.199219 L 0.960938 0 Z M 4.800781 -15.359375 L 16.320312 -15.359375 L 16.320312 -3.839844 L 4.800781 -3.839844 Z M 4.800781 -15.359375 "/></g></g></g><g fill="#1956b4" fill-opacity="1"><g transform="translate(113.166924, 239.654516)"><g><path d="M 20.160156 0 L 20.160156 -3.839844 L 12.480469 -3.839844 L 12.480469 -15.359375 L 20.160156 -15.359375 L 20.160156 -19.199219 L 0.960938 -19.199219 L 0.960938 -15.359375 L 8.640625 -15.359375 L 8.640625 -3.839844 L 0.960938 -3.839844 L 0.960938 0 Z M 20.160156 0 "/></g></g></g><g fill="#1956b4" fill-opacity="1"><g transform="translate(134.286972, 239.654516)"><g><path d="M 20.160156 -19.199219 L 4.800781 -19.199219 C 2.6875 -19.199219 0.960938 -17.472656 0.960938 -15.359375 L 0.960938 -11.519531 C 0.960938 -9.40625 2.6875 -7.679688 4.800781 -7.679688 L 16.320312 -7.679688 L 16.320312 -3.839844 L 0.960938 -3.839844 L 0.960938 0 L 16.320312 0 C 18.433594 0 20.160156 -1.726562 20.160156 -3.839844 L 20.160156 -7.679688 C 20.160156 -9.792969 18.433594 -11.519531 16.320312 -11.519531 L 4.800781 -11.519531 L 4.800781 -15.359375 L 20.160156 -15.359375 Z M 20.160156 -19.199219 "/></g></g></g><g fill="#1956b4" fill-opacity="1"><g transform="translate(155.407019, 239.654516)"><g><path d="M 20.160156 -19.199219 L 15.550781 -19.199219 C 15.023438 -19.199219 14.542969 -19.007812 14.160156 -18.625 L 7.054688 -11.519531 L 4.800781 -11.519531 L 4.800781 -19.199219 L 0.960938 -19.199219 L 0.960938 0 L 4.800781 0 L 4.800781 -7.679688 L 7.054688 -7.679688 L 14.160156 -0.574219 C 14.542969 -0.191406 15.023438 0 15.550781 0 L 20.160156 0 L 20.160156 -3.839844 L 16.320312 -3.839844 L 10.558594 -9.601562 L 16.320312 -15.359375 L 20.160156 -15.359375 Z M 20.160156 -19.199219 "/></g></g></g><g fill="#1956b4" fill-opacity="1"><g transform="translate(176.527066, 239.654516)"><g><path d="M 16.320312 0 C 18.433594 0 20.160156 -1.726562 20.160156 -3.839844 L 20.160156 -19.199219 L 16.320312 -19.199219 L 16.320312 -3.839844 L 4.800781 -3.839844 L 4.800781 -19.199219 L 0.960938 -19.199219 L 0.960938 -3.839844 C 0.960938 -1.726562 2.6875 0 4.800781 0 Z M 16.320312 0 "/></g></g></g><g fill="#1956b4" fill-opacity="1"><g transform="translate(197.647114, 239.654516)"><g><path d="M 20.160156 -19.199219 L 4.800781 -19.199219 C 2.6875 -19.199219 0.960938 -17.472656 0.960938 -15.359375 L 0.960938 -11.519531 C 0.960938 -9.40625 2.6875 -7.679688 4.800781 -7.679688 L 16.320312 -7.679688 L 16.320312 -3.839844 L 0.960938 -3.839844 L 0.960938 0 L 16.320312 0 C 18.433594 0 20.160156 -1.726562 20.160156 -3.839844 L 20.160156 -7.679688 C 20.160156 -9.792969 18.433594 -11.519531 16.320312 -11.519531 L 4.800781 -11.519531 L 4.800781 -15.359375 L 20.160156 -15.359375 Z M 20.160156 -19.199219 "/></g></g></g><g fill="#1956b4" fill-opacity="1"><g transform="translate(218.767161, 239.654516)"><g><path d="M 20.160156 0 L 20.160156 -3.839844 L 12.480469 -3.839844 L 12.480469 -15.359375 L 20.160156 -15.359375 L 20.160156 -19.199219 L 0.960938 -19.199219 L 0.960938 -15.359375 L 8.640625 -15.359375 L 8.640625 -3.839844 L 0.960938 -3.839844 L 0.960938 0 Z M 20.160156 0 "/></g></g></g><g fill="#1956b4" fill-opacity="1"><g transform="translate(239.887208, 239.654516)"><g><path d="M 4.800781 -19.199219 C 2.6875 -19.199219 0.960938 -17.472656 0.960938 -15.359375 L 0.960938 0 L 4.800781 0 L 4.800781 -7.679688 L 16.320312 -7.679688 L 16.320312 0 L 20.160156 0 L 20.160156 -15.359375 C 20.160156 -17.472656 18.433594 -19.199219 16.320312 -19.199219 Z M 4.800781 -15.359375 L 16.320312 -15.359375 L 16.320312 -11.519531 L 4.800781 -11.519531 Z M 4.800781 -15.359375 "/></g></g></g><g fill="#1956b4" fill-opacity="1"><g transform="translate(261.007256, 239.654516)"><g><path d="M 20.160156 -3.839844 L 7.511719 -3.839844 L 19.585938 -15.910156 C 19.945312 -16.273438 20.160156 -16.753906 20.160156 -17.28125 C 20.160156 -18.335938 19.296875 -19.199219 18.238281 -19.199219 L 0.960938 -19.199219 L 0.960938 -15.359375 L 13.609375 -15.359375 L 1.535156 -3.289062 C 1.175781 -2.929688 0.960938 -2.449219 0.960938 -1.921875 C 0.960938 -0.863281 1.824219 0 2.878906 0 L 20.160156 0 Z M 20.160156 -3.839844 "/></g></g></g><g fill="#1956b4" fill-opacity="1"><g transform="translate(282.127303, 239.654516)"><g><path d="M 4.800781 -19.199219 C 2.6875 -19.199219 0.960938 -17.472656 0.960938 -15.359375 L 0.960938 0 L 4.800781 0 L 4.800781 -7.679688 L 16.320312 -7.679688 L 16.320312 0 L 20.160156 0 L 20.160156 -15.359375 C 20.160156 -17.472656 18.433594 -19.199219 16.320312 -19.199219 Z M 4.800781 -15.359375 L 16.320312 -15.359375 L 16.320312 -11.519531 L 4.800781 -11.519531 Z M 4.800781 -15.359375 "/></g></g></g></svg>